<?xml version="1.0" standalone="no"?>
<!DOCTYPE svg PUBLIC "-//W3C//DTD SVG 1.1//EN" "http://www.w3.org/Graphics/SVG/1.1/DTD/svg11.dtd" >
<svg xmlns="http://www.w3.org/2000/svg" xmlns:xlink="http://www.w3.org/1999/xlink" version="1.1">
<metadata></metadata>
<defs>
<font id="haettenschweilerregular" horiz-adv-x="729" >
<font-face units-per-em="2048" ascent="1638" descent="-410" />
<missing-glyph horiz-adv-x="365" />
<glyph horiz-adv-x="0" />
<glyph horiz-adv-x="682" />
<glyph unicode=" "  horiz-adv-x="365" />
<glyph unicode="&#x09;" horiz-adv-x="365" />
<glyph unicode="&#xa0;" horiz-adv-x="365" />
<glyph unicode="!" horiz-adv-x="344" d="M30 0v209h285v-209h-285zM30 272v1162h285v-1162h-285z" />
<glyph unicode="&#x22;" horiz-adv-x="766" d="M21 956l134 478h278l-291 -498zM333 956l133 478h278l-290 -498z" />
<glyph unicode="#" horiz-adv-x="1645" d="M28 283l52 284h280l54 299h-281l49 285h283l49 283h285l-50 -283h299l50 283h284l-49 -283h283l-49 -285h-285l-51 -299h282l-51 -284h-283l-49 -283h-284l49 283h-299l-49 -283h-285l49 283h-283zM647 567h297l53 299h-299z" />
<glyph unicode="$" horiz-adv-x="776" d="M30 244v327h287v-329q0 -49 59 -49q57 0 57 49v170q0 54 -40.5 108.5t-258.5 267.5q-104 117 -104 216v161q0 220 213 265v98h284v-98q193 -47 193 -240v-248h-287v264q0 43 -47 43q-55 0 -55 -83l6 -93q0 -79 106 -188q214 -212 259 -280t45 -152v-183q0 -230 -220 -274 v-94h-284v98q-213 54 -213 244z" />
<glyph unicode="%" horiz-adv-x="709" d="M27 0l518 1434h137l-518 -1434h-137zM45 965v378q0 101 139 101q140 0 140 -101v-378q0 -93 -140 -93q-139 0 -139 93zM164 961q0 -17 20 -17q19 0 19 17v395q0 16 -19 16q-20 0 -20 -16v-395zM387 76v379q0 100 139 100q140 0 140 -100v-379q0 -92 -140 -92 q-139 0 -139 92zM506 72q0 -17 20 -17q19 0 19 17v395q0 16 -19 16q-20 0 -20 -16v-395z" />
<glyph unicode="&#x26;" horiz-adv-x="872" d="M34 270v269q0 190 188 233q-178 61 -178 205v211q0 116 97.5 186t234.5 70q131 0 234.5 -64.5t103.5 -195.5v-176h-271l6 119q0 120 -63 120q-57 0 -57 -59v-227q0 -66 24.5 -82.5t94.5 -16.5v-174q-70 0 -92.5 -13.5t-22.5 -86.5v-344q0 -60 57 -60q58 0 58 60v317h397 v-164h-103v-182q0 -109 -103 -170t-249 -61q-144 0 -250 68.5t-106 217.5z" />
<glyph unicode="'" horiz-adv-x="455" d="M21 956l134 478h278l-291 -498z" />
<glyph unicode="(" horiz-adv-x="506" d="M30 264v899q0 163 36.5 222t231.5 59h182v-156q-165 0 -165 -69v-1010q0 -70 165 -70v-155h-182q-167 0 -217.5 71t-50.5 209z" />
<glyph unicode=")" horiz-adv-x="506" d="M26 -16v155q166 0 166 70v1010q0 69 -166 69v156h182q191 0 229.5 -58.5t38.5 -222.5v-899q0 -164 -60.5 -222t-207.5 -58h-182z" />
<glyph unicode="*" horiz-adv-x="862" d="M28 1081l51 156l270 -88v285h164v-285l270 88l52 -156l-273 -88l168 -229l-133 -96l-166 229l-166 -229l-133 96l168 229z" />
<glyph unicode="+" horiz-adv-x="764" d="M22 279v161h278v279h162v-279h279v-161h-279v-279h-162v279h-278z" />
<glyph unicode="," horiz-adv-x="322" d="M31 0v209h260v-143q0 -130 -164 -238l-57 47q67 67 73 125h-112z" />
<glyph unicode="-" horiz-adv-x="461" d="M37 510v161h407v-161h-407z" />
<glyph unicode="." horiz-adv-x="315" d="M28 0v209h260v-209h-260z" />
<glyph unicode="/" horiz-adv-x="684" d="M28 0l458 1434h170l-458 -1434h-170z" />
<glyph unicode="0" horiz-adv-x="795" d="M30 245v923q0 279 371 279q364 0 364 -277v-923q0 -124 -102.5 -192t-263.5 -68q-166 0 -267.5 67t-101.5 191zM345 230q0 -43 54 -43q51 0 51 43v977q0 43 -51 43q-54 0 -54 -43v-977z" />
<glyph unicode="1" horiz-adv-x="500" d="M29 1051v209q69 0 116.5 59t47.5 115h272v-1434h-315v1051h-121z" />
<glyph unicode="2" horiz-adv-x="770" d="M26 0v190l354 650q58 106 58 290q0 96 -64 96q-66 0 -66 -60v-246h-282v250q0 277 356 277q220 0 291.5 -101.5t71.5 -333.5q0 -91 -31 -150l-354 -678h385v-184h-719z" />
<glyph unicode="3" horiz-adv-x="768" d="M27 259v342h289v-340q0 -53 57 -53t57 53v332q0 57 -28.5 77.5t-106.5 20.5v162q135 0 135 84v254q0 43 -57 43q-59 0 -59 -43v-264h-279v266q0 254 352 254q141 0 246 -61t105 -193v-197q0 -172 -164 -231q168 -49 168 -266v-213q0 -299 -355 -299q-360 0 -360 272z" />
<glyph unicode="4" horiz-adv-x="903" d="M8 184v203l309 1047h424v-1035h156v-215h-156v-184h-307v184h-426zM291 399h143v566z" />
<glyph unicode="5" horiz-adv-x="770" d="M26 245v357h307v-368q0 -47 53 -47q52 0 52 47v477q0 51 -58 51q-53 0 -55 -88l-295 8l16 752h707l-49 -217h-357l-14 -295q47 47 164 47q248 0 248 -213v-509q0 -124 -99 -192t-260 -68q-360 0 -360 258z" />
<glyph unicode="6" horiz-adv-x="768" d="M25 245v923q0 279 362 279q357 0 357 -277v-145h-307l6 116q0 111 -58 111q-53 0 -53 -47v-280q35 47 150 47q114 0 188 -57t74 -156v-512q0 -125 -99.5 -192.5t-259.5 -67.5q-360 0 -360 258zM332 234q0 -47 53 -47q52 0 52 47v469q0 48 -52 48q-53 0 -53 -48v-469z" />
<glyph unicode="7" horiz-adv-x="770" d="M20 0l394 1233h-371v201h711v-205l-394 -1229h-340z" />
<glyph unicode="8" horiz-adv-x="774" d="M28 259v295q0 182 166 221q-158 49 -158 268v150q0 254 352 254q141 0 246 -61t105 -193v-150q0 -219 -158 -268q166 -40 166 -221v-295q0 -272 -361 -272q-358 0 -358 272zM335 230q0 -43 53 -43q52 0 52 43v418q0 43 -52 43q-53 0 -53 -43v-418zM335 908q0 -43 53 -43 q52 0 52 43v299q0 43 -52 43q-53 0 -53 -43v-299z" />
<glyph unicode="9" horiz-adv-x="776" d="M29 263v336h307v-365q0 -47 53 -47q52 0 52 47v426q-34 -36 -127 -36q-126 0 -205.5 60.5t-79.5 168.5v334q0 125 99 192.5t259 67.5q162 0 261.5 -67t99.5 -191v-924q0 -278 -363 -278q-356 0 -356 276zM336 861q0 -47 53 -47q52 0 52 47v344q0 47 -52 47q-53 0 -53 -47 v-344z" />
<glyph unicode=":" horiz-adv-x="317" d="M29 -2v209h260v-209h-260zM29 688v209h260v-209h-260z" />
<glyph unicode=";" horiz-adv-x="317" d="M28 0v209h260v-143q0 -130 -164 -238l-57 47q67 67 73 125h-112zM30 688v209h260v-209h-260z" />
<glyph unicode="&#x3c;" horiz-adv-x="782" d="M32 279v161l719 262v-161l-498 -183l498 -182v-162z" />
<glyph unicode="=" horiz-adv-x="782" d="M32 117v162h719v-162h-719zM32 440v162h719v-162h-719z" />
<glyph unicode="&#x3e;" horiz-adv-x="780" d="M31 14v162l497 182l-497 183v161l719 -262v-161z" />
<glyph unicode="?" horiz-adv-x="727" d="M34 840v350q0 254 323 254q162 0 252 -56t90 -223v-184q0 -90 -29.5 -154t-134.5 -185q-70 -81 -84 -144t-14 -230h-284v39q0 151 18.5 224.5t131.5 214.5q99 123 99 202v258q0 43 -47 43t-47 -43v-366h-274zM153 0v209h284v-209h-284z" />
<glyph unicode="@" horiz-adv-x="1640" d="M31 604q0 361 227.5 600.5t579.5 239.5q360 0 568 -206.5t208 -633.5q0 -199 -118 -333t-308 -134q-167 0 -244 99q-76 -97 -266 -97q-234 0 -234 183v514q0 182 234 182q143 0 182 -62v54h252v-570q0 -137 82 -137q244 0 244 307q0 668 -604 668q-335 0 -486 -199 t-151 -469q0 -273 152.5 -477.5t484.5 -204.5q256 0 456 49v-172q-204 -49 -452 -49q-352 0 -579.5 243t-227.5 605zM729 373q0 -54 51 -54q47 0 47 54v410q0 55 -49 55t-49 -58v-407z" />
<glyph unicode="A" horiz-adv-x="901" d="M15 0l236 1434h399l236 -1434h-312l-53 385h-141l-53 -385h-312zM407 584h88l-45 428z" />
<glyph unicode="B" horiz-adv-x="776" d="M33 0v1434h371q133 0 231 -60.5t98 -193.5v-199q0 -151 -184 -213q194 -48 194 -207v-278q0 -142 -92.5 -212.5t-220.5 -70.5h-397zM348 184q88 0 88 76v363q0 75 -88 75v-514zM348 854q88 0 88 76v244q0 75 -88 75v-395z" />
<glyph unicode="C" horiz-adv-x="758" d="M34 245v923q0 279 364 279q326 0 326 -254v-260h-287v284q0 35 -43 35q-45 0 -45 -35v-995q0 -35 45 -35q43 0 43 35v354h287v-364q0 -102 -100 -163.5t-226 -61.5q-364 0 -364 258z" />
<glyph unicode="D" horiz-adv-x="782" d="M31 0v1434h392q128 0 228 -69.5t100 -213.5v-868q0 -134 -93.5 -208.5t-232.5 -74.5h-394zM346 184q88 0 88 76v914q0 75 -88 75v-1065z" />
<glyph unicode="E" horiz-adv-x="668" d="M35 0v1434h612v-185h-297v-387h268v-174h-268v-504h301v-184h-616z" />
<glyph unicode="F" horiz-adv-x="641" d="M35 0v1434h590v-185h-275v-387h246v-174h-246v-688h-315z" />
<glyph unicode="G" horiz-adv-x="758" d="M32 232v936q0 279 356 279q338 0 338 -254v-266h-285v290q0 35 -47 35t-47 -35v-995q0 -35 47 -35t47 35v268h-65v220h350v-710h-151l-41 79q-104 -92 -220 -92q-113 0 -197.5 58.5t-84.5 186.5z" />
<glyph unicode="H" horiz-adv-x="778" d="M30 0v1434h315v-572h88v572h315v-1434h-315v688h-88v-688h-315z" />
<glyph unicode="I" horiz-adv-x="373" d="M29 0v1434h315v-1434h-315z" />
<glyph unicode="J" horiz-adv-x="743" d="M32 212v364h278v-354q0 -35 44 -35t44 35v1212h315v-1189q0 -258 -357 -258q-127 0 -225.5 62t-98.5 163z" />
<glyph unicode="K" horiz-adv-x="831" d="M39 0v1434h315v-478l138 478h292l-194 -654l231 -780h-346l-121 532v-532h-315z" />
<glyph unicode="L" horiz-adv-x="643" d="M38 0v1434h315v-1250h276v-184h-591z" />
<glyph unicode="M" horiz-adv-x="1167" d="M36 0v1434h405l144 -744l125 744h422v-1434h-281v805l-164 -805h-217l-188 805v-805h-246z" />
<glyph unicode="N" horiz-adv-x="870" d="M35 0v1434h358l180 -654v654h263v-1434h-324l-214 764v-764h-263z" />
<glyph unicode="O" horiz-adv-x="782" d="M32 245v923q0 279 362 279q357 0 357 -277v-923q0 -125 -99.5 -192.5t-259.5 -67.5q-360 0 -360 258zM339 230q0 -43 53 -43q51 0 51 43v977q0 43 -51 43q-53 0 -53 -43v-977z" />
<glyph unicode="P" horiz-adv-x="776" d="M35 0v1434h331q197 0 292.5 -50t95.5 -204v-398q0 -142 -78 -200q-73 -55 -302 -54h-32v-528h-307zM342 733q105 0 105 76v344q0 76 -105 76v-496z" />
<glyph unicode="Q" horiz-adv-x="784" d="M33 245v923q0 279 362 279q357 0 357 -277v-923q0 -150 -158 -226q0 -34 24 -42.5t134 -8.5v-166h-125q-193 0 -193 183q-401 0 -401 258zM340 230q0 -43 53 -43q52 0 52 43v977q0 43 -52 43q-53 0 -53 -43v-977z" />
<glyph unicode="R" horiz-adv-x="821" d="M39 0v1434h389q133 0 231.5 -61t98.5 -193v-172q0 -167 -195 -226q196 -46 196 -237l-5 -157q0 -344 59 -390h-315q-51 61 -51 346v2l2 86q3 179 3 183q0 73 -98 73v-688h-315zM354 862q98 0 98 76v236q0 75 -98 75v-387z" />
<glyph unicode="S" horiz-adv-x="784" d="M34 247v327h287v-329q0 -49 59 -49q57 0 57 49v170q0 78 -104 183q-201 195 -250 262t-49 147v161q0 279 364 279q326 0 326 -254v-248h-287v264q0 43 -47 43q-55 0 -55 -83l6 -93q0 -80 106 -186q197 -189 250.5 -264t53.5 -170v-183q0 -286 -365 -286q-352 0 -352 260z " />
<glyph unicode="T" horiz-adv-x="717" d="M25 1247v187h667v-187h-176v-1247h-315v1247h-176z" />
<glyph unicode="U" horiz-adv-x="801" d="M33 245v1189h315v-1204q0 -43 53 -43q52 0 52 43v1204h315v-1187q0 -124 -103 -192t-264 -68q-149 0 -258.5 61t-109.5 197z" />
<glyph unicode="V" horiz-adv-x="846" d="M7 1434h307l109 -1002l108 1002h308l-193 -1434h-446z" />
<glyph unicode="W" horiz-adv-x="1288" d="M8 1434h283l80 -662l108 662h355l86 -662l106 662h258l-184 -1434h-373l-113 791l-106 -791h-322z" />
<glyph unicode="X" horiz-adv-x="932" d="M8 0l248 815l-184 619h303l112 -416l125 416h283l-215 -664l246 -770h-338l-144 461l-135 -461h-301z" />
<glyph unicode="Y" horiz-adv-x="901" d="M8 1434h301l142 -508l161 508h283l-206 -578l-103 -289v-567h-315v556q-9 76 -81 297q-62 187 -182 581z" />
<glyph unicode="Z" horiz-adv-x="752" d="M20 0v182l347 1065h-326v187h666v-189l-345 -1061h369v-184h-711z" />
<glyph unicode="[" horiz-adv-x="322" d="M34 0v1434h264v-78h-135v-1282h135v-74h-264z" />
<glyph unicode="\" horiz-adv-x="684" d="M28 1434h170l459 -1434h-170z" />
<glyph unicode="]" horiz-adv-x="322" d="M24 0v74h135v1282h-135v78h264v-1434h-264z" />
<glyph unicode="^" horiz-adv-x="961" d="M54 690l353 801h145l355 -801h-181l-247 597l-240 -597h-185z" />
<glyph unicode="_" horiz-adv-x="762" d="M0 -84h766v-162h-766v162z" />
<glyph unicode="`" horiz-adv-x="317" d="M20 1434h218l59 -185h-156z" />
<glyph unicode="a" horiz-adv-x="739" d="M36 166v233q0 78 56.5 136t227.5 145q99 50 99 80v172q0 57 -49 57q-56 0 -56 -139q0 -25 3 -74q4 -49 4 -74h-275v232q0 235 340 235q318 0 318 -245v-924h-252v45q-32 -61 -183 -61q-233 0 -233 182zM321 217q0 -53 51 -53q47 0 47 53v299q-98 -24 -98 -88v-211z" />
<glyph unicode="b" d="M31 0v1434h284v-308q51 43 177 43q77 0 141.5 -41.5t64.5 -119.5v-834q0 -88 -77 -139t-185 -51q-84 0 -166 55l-24 -39h-215zM315 217q0 -53 50 -53q49 0 49 53v719q0 53 -49 53q-50 0 -50 -51v-721z" />
<glyph unicode="c" d="M31 229v695q0 245 338 245q329 0 329 -235v-287h-284v285q0 57 -49 57q-50 0 -50 -57v-711q0 -59 50 -59q49 0 49 59v281h284v-283q0 -235 -329 -235q-338 0 -338 245z" />
<glyph unicode="d" d="M31 174v834q0 74 60.5 117.5t146.5 43.5q118 0 176 -43v308h284v-1434h-215l-24 39q-73 -55 -166 -55q-109 0 -185.5 51t-76.5 139zM315 217q0 -53 50 -53q49 0 49 53v721q0 51 -49 51q-50 0 -50 -53v-719z" />
<glyph unicode="e" horiz-adv-x="731" d="M32 229v695q0 245 332 245q335 0 335 -235v-442h-383v-271q0 -59 50 -59q49 0 49 59v234h284v-236q0 -235 -335 -235q-332 0 -332 245zM316 666h99v266q0 57 -49 57q-50 0 -50 -57v-266z" />
<glyph unicode="f" horiz-adv-x="569" d="M23 989v172h96q0 153 38.5 213t229.5 60h180v-156h-55q-73 0 -91 -27.5t-18 -89.5h164v-172h-164v-989h-284v989h-96z" />
<glyph unicode="g" d="M31 145v834q0 190 227 190q60 0 158 -51l37 43h245v-1145q0 -113 -44.5 -187.5t-276.5 -74.5h-295v168h231q101 0 101 105q-56 -43 -176 -43q-84 0 -145.5 44.5t-61.5 116.5zM315 209q0 -53 50 -53q49 0 49 51v729q0 53 -49 53q-50 0 -50 -53v-727z" />
<glyph unicode="h" horiz-adv-x="733" d="M33 0v1434h284v-308q51 43 177 43q84 0 145 -44t61 -117v-1008h-284v936q0 53 -49 53q-50 0 -50 -51v-938h-284z" />
<glyph unicode="i" horiz-adv-x="340" d="M27 0v1161h285v-1161h-285zM27 1225v209h285v-209h-285z" />
<glyph unicode="j" horiz-adv-x="365" d="M-121 -78q112 0 136 11t24 69v1159h285v-1188q0 -219 -232 -219h-213v168zM39 1225v209h285v-209h-285z" />
<glyph unicode="k" horiz-adv-x="840" d="M34 0v1434h284v-643l146 370h295l-207 -508l276 -653h-335l-175 420v-420h-284z" />
<glyph unicode="l" horiz-adv-x="352" d="M34 0v1434h285v-1434h-285z" />
<glyph unicode="m" horiz-adv-x="1118" d="M34 0v1161h284v-41q59 49 177 49q99 0 180 -79q75 79 205 79q74 0 139 -44.5t65 -123.5v-1001h-284v928q0 53 -49 53q-50 0 -50 -51v-930h-284v930q0 53 -49 53q-50 0 -50 -51v-932h-284z" />
<glyph unicode="n" d="M31 0v1161h285v-39q57 47 176 47q77 0 142 -42t65 -123v-1004h-285v932q0 53 -49 53t-49 -51v-934h-285z" />
<glyph unicode="o" horiz-adv-x="721" d="M26 229v695q0 245 339 245q131 0 230.5 -57t99.5 -178v-715q0 -235 -330 -235q-339 0 -339 245zM311 221q0 -59 50 -59q49 0 49 59v711q0 57 -49 57q-50 0 -50 -57v-711z" />
<glyph unicode="p" d="M31 -246v1407h215l24 -47q70 55 166 55q97 0 179.5 -49t82.5 -141v-834q0 -73 -60 -117t-146 -44q-119 0 -177 43v-273h-284zM315 215q0 -51 50 -51q49 0 49 53v719q0 53 -49 53q-50 0 -50 -53v-721z" />
<glyph unicode="q" d="M31 145v834q0 88 77 139t185 51q86 0 166 -55l24 47h215v-1407h-284v273q-56 -43 -176 -43q-84 0 -145.5 44.5t-61.5 116.5zM315 217q0 -53 50 -53q49 0 49 51v721q0 53 -49 53q-50 0 -50 -53v-719z" />
<glyph unicode="r" d="M39 0v1161h285v-39q57 47 176 47q85 0 146 -45.5t61 -119.5v-324h-285v252q0 53 -49 53t-49 -51v-934h-285z" />
<glyph unicode="s" horiz-adv-x="725" d="M31 219v248h284v-246q0 -59 48 -59t48 113q0 147 -59 190q-223 117 -269 163.5t-46 139.5v156q0 245 332 245q323 0 323 -235v-229h-278l6 139q0 145 -53 145t-53 -91q0 -94 23.5 -142t261.5 -165q99 -71 99 -188v-174q0 -245 -337 -245q-330 0 -330 235z" />
<glyph unicode="t" horiz-adv-x="618" d="M20 989v172h127v234h285v-234h154v-172h-154v-706q0 -51 30.5 -68.5t133.5 -17.5v-197h-180q-193 0 -231 58t-38 223v708h-127z" />
<glyph unicode="u" d="M31 145v1016h284v-944q0 -53 50 -53q49 0 49 51v946h284v-1161h-284v39q-55 -55 -176 -55q-84 0 -145.5 44.5t-61.5 116.5z" />
<glyph unicode="v" horiz-adv-x="776" d="M7 1161h287l98 -686l96 686h281l-209 -1161h-344z" />
<glyph unicode="w" horiz-adv-x="1223" d="M7 1161h275l98 -631l88 631h287l88 -631l98 631h275l-199 -1161h-313l-89 475l-81 -475h-328z" />
<glyph unicode="x" horiz-adv-x="801" d="M6 0l223 614l-217 547h301l97 -301l77 301h271l-191 -561l228 -600h-314l-98 315l-92 -315h-285z" />
<glyph unicode="y" horiz-adv-x="791" d="M7 1161h285l119 -614l94 614h278l-221 -1155q-34 -177 -91.5 -214.5t-159.5 -37.5h-199v156q112 0 139 11t27 65t-123 563z" />
<glyph unicode="z" d="M27 0v160l323 815h-305v186h635v-157l-328 -820h359v-184h-684z" />
<glyph unicode="{" horiz-adv-x="633" d="M20 623v182q147 0 147 176q0 34 -5 101q-4 67 -4 101q0 261 270 261h182v-156h-29q-137 0 -137 -69v-342q0 -114 -139 -162q139 -48 139 -164v-342q0 -70 166 -70v-155h-182q-159 0 -217 73.5t-58 220.5l3 111q4 74 4 111q0 123 -140 123z" />
<glyph unicode="|" horiz-adv-x="348" d="M32 0v1434h284v-1434h-284z" />
<glyph unicode="}" horiz-adv-x="633" d="M20 -16v155h23q143 0 143 70v342q0 116 140 164q-140 42 -140 162v342q0 69 -166 69v156h183q270 0 270 -262q0 -34 -5 -101q-4 -66 -4 -100q0 -176 146 -176v-182q-146 0 -146 -175q0 -34 5 -101t5 -101q0 -262 -271 -262h-183z" />
<glyph unicode="~" horiz-adv-x="1196" d="M87 557v205q106 120 278 120q109 0 314 -87q111 -47 173 -47q133 0 258 137v-212q-122 -114 -277 -114q-106 0 -287 81q-119 53 -198 53q-120 0 -261 -136z" />
<glyph unicode="&#xa1;" horiz-adv-x="340" d="M28 0v1161h284v-1161h-284zM28 1225v209h284v-209h-284z" />
<glyph unicode="&#xa2;" horiz-adv-x="739" d="M36 229v695q0 189 211 233v129h246v-125q210 0 210 -227v-287h-284v285q0 57 -49 57q-50 0 -50 -57v-711q0 -59 50 -59q49 0 49 59v281h284v-285q0 -187 -210 -225v-115h-246v119q-211 39 -211 233z" />
<glyph unicode="&#xa3;" horiz-adv-x="836" d="M35 659v182h76v328q0 275 366 275q269 0 338 -168l-291 -150q0 82 -6 97.5t-39 15.5q-16 0 -24 -13q-13 -22 -17 -26v-359h178v-182h-178v-475h262v-184h-589v659h-76z" />
<glyph unicode="&#xa4;" horiz-adv-x="887" d="M39 176l111 109q-45 82 -45 166t43 161l-107 109l129 131l109 -111q70 43 159 43q86 0 164 -45l117 117l129 -127l-119 -117q43 -70 43 -161q0 -92 -43 -162l119 -115l-131 -129l-117 115q-77 -43 -162 -43q-79 0 -157 41l-113 -113zM301 451q0 -48 37 -93t100 -45 q38 0 68.5 19t50 50t19.5 69q0 62 -45 99.5t-93 37.5q-65 0 -101 -43.5t-36 -93.5z" />
<glyph unicode="&#xa5;" horiz-adv-x="942" d="M28 1434h301l141 -508l162 508h282l-286 -803h215v-152h-238v-106h238v-150h-238v-223h-315v223h-238v150h238v106h-238v152h219z" />
<glyph unicode="&#xa6;" horiz-adv-x="371" d="M32 0v662h307v-662h-307zM32 772v662h307v-662h-307z" />
<glyph unicode="&#xa7;" horiz-adv-x="711" d="M26 668q0 71 38 148t94 77q-97 76 -97 211q0 219 70.5 279.5t239.5 60.5q297 0 297 -213v-211h-240v223q0 51 -51 51q-58 0 -58 -92q0 -141 33 -172q243 -224 287.5 -295t44.5 -205q0 -69 -38.5 -146t-92.5 -77q93 -76 93 -217q0 -218 -72 -277t-234 -59 q-120 0 -209.5 51.5t-89.5 161.5v211h239v-223q0 -53 54 -53q57 0 57 92q0 143 -33 174q-240 221 -286 294t-46 206zM188 731q0 -54 41 -103.5t256 -238.5q37 37 37 82q0 108 -299 338q-35 -35 -35 -78z" />
<glyph unicode="&#xa8;" horiz-adv-x="537" d="M26 1346q0 40 29.5 69t69.5 29q98 0 98 -98q0 -44 -32 -70.5t-66 -26.5q-99 0 -99 97zM313 1346q0 40 29.5 69t69.5 29q98 0 98 -98q0 -39 -29.5 -68t-68.5 -29q-99 0 -99 97z" />
<glyph unicode="&#xa9;" horiz-adv-x="834" d="M20 1049q0 167 115.5 281t282.5 114q103 0 190 -45t146 -136t59 -214q0 -168 -113 -282t-282 -114q-146 0 -272 102.5t-126 293.5zM86 1049q0 -141 95.5 -235.5t236.5 -94.5q87 0 159.5 37t121.5 113t49 180q0 139 -95.5 234t-234.5 95q-141 0 -236.5 -94t-95.5 -235z M283 870v349q0 104 135 104q123 0 123 -96v-99h-107v109l-16 12l-19 -12v-373q0 -14 19 -14q21 0 21 51l-5 94h107v-137q0 -84 -123 -84q-135 0 -135 96z" />
<glyph unicode="&#xaa;" horiz-adv-x="391" d="M29 731v92h334v-92h-334zM29 942v117q0 55 96 117l96 63v88q0 26 -23 26q-25 0 -25 -31l-1 -99h-137v102q0 119 170 119q158 0 158 -123v-463h-125v25q-19 -33 -92 -33q-117 0 -117 92zM172 969q0 -27 25 -27q24 0 24 27v147q-49 -14 -49 -43v-104z" />
<glyph unicode="&#xab;" horiz-adv-x="1128" d="M35 354v162l573 356v-223l-352 -215l352 -213v-221zM520 354v162l574 356v-223l-353 -215l353 -213v-221z" />
<glyph unicode="&#xac;" horiz-adv-x="1165" d="M35 602v217h1095v-493h-184v276h-911z" />
<glyph unicode="&#xad;" horiz-adv-x="461" d="M37 510v161h407v-161h-407z" />
<glyph unicode="&#xae;" horiz-adv-x="834" d="M20 1049q0 167 115.5 281t282.5 114q103 0 190 -45t146 -136t59 -214q0 -168 -113 -282t-282 -114q-146 0 -272 102.5t-126 293.5zM86 1049q0 -141 95.5 -235.5t236.5 -94.5q87 0 159.5 37t121.5 113t49 180q0 139 -95.5 234t-234.5 95q-141 0 -236.5 -94t-95.5 -235z M276 780v539h146q123 0 123 -96v-64q0 -63 -72 -86q78 -18 78 -117l-6 -110q0 -51 24 -68h-120q-20 22 -20 75l7 117q0 68 -41 68v-258h-119zM395 1104q35 0 35 29v88q0 28 -35 28v-145z" />
<glyph unicode="&#xaf;" horiz-adv-x="762" d="M-4 1571v162h766v-162h-766z" />
<glyph unicode="&#xb0;" horiz-adv-x="477" d="M23 1231q0 78 56 146t161 68q90 0 152 -63t62 -153q0 -86 -62 -149.5t-148 -63.5q-94 0 -157.5 62t-63.5 153zM175 1229q0 -64 64 -64q63 0 63 64q0 63 -60 63q-67 0 -67 -63z" />
<glyph unicode="&#xb1;" horiz-adv-x="784" d="M33 2v162h278v186h-278v162h278v279h162v-279h279v-162h-279v-186h279v-162h-719z" />
<glyph unicode="&#xb2;" horiz-adv-x="410" d="M25 725v96l176 324q31 57 31 151q0 40 -31 40q-34 0 -34 -40v-108h-142v123q0 135 176 135q185 0 185 -192q0 -96 -193 -437h192v-92h-360z" />
<glyph unicode="&#xb3;" horiz-adv-x="415" d="M27 850v168h146v-166q0 -28 29 -28q27 0 27 34v156q0 49 -67 49v84q69 0 69 59v71q0 57 -30 57q-29 0 -33 -35l2 -115h-139v133q0 127 176 127t176 -127v-84q0 -104 -82 -133q84 -25 84 -133v-107q0 -149 -178 -149q-180 0 -180 139z" />
<glyph unicode="&#xb4;" horiz-adv-x="317" d="M21 1249l61 185h215l-119 -185h-157z" />
<glyph unicode="&#xb5;" d="M31 -267v1428h284v-944q0 -53 50 -53q49 0 49 51v946h284v-1161h-284v39q-33 -39 -69 -39q-24 0 -38 14v-281h-276z" />
<glyph unicode="&#xb6;" horiz-adv-x="1194" d="M33 1051v100q0 142 99.5 212.5t227.5 70.5h801v-185h-112v-1249h-285v1249h-119v-1249h-285v765q-128 3 -227.5 73t-99.5 213z" />
<glyph unicode="&#xb7;" horiz-adv-x="317" d="M29 688v209h260v-209h-260z" />
<glyph unicode="&#xb8;" horiz-adv-x="1679" d="M283 -211l39 57q23 -16 39 -16q45 0 45 45q0 44 -42 44q-4 -2 -34 -11v100h116v-35q84 -19 84 -106q0 -113 -163 -113q-51 0 -84 35z" />
<glyph unicode="&#xb9;" horiz-adv-x="336" d="M59 1245v105q80 0 80 84h137v-717h-158v528h-59z" />
<glyph unicode="&#xba;" horiz-adv-x="383" d="M24 731v92h334v-92h-334zM24 971v350q0 123 168 123q166 0 166 -121v-354q0 -121 -166 -121q-168 0 -168 123zM166 967q0 -28 23 -28q26 0 26 29v359q0 27 -24 27q-22 0 -25 -29v-358z" />
<glyph unicode="&#xbb;" horiz-adv-x="1120" d="M31 0v221l352 213l-352 215v223l573 -356v-162zM516 0v221l352 213l-352 215v223l574 -356v-162z" />
<glyph unicode="&#xbc;" horiz-adv-x="1044" d="M47 0l714 1434h172l-716 -1434h-170zM77 1245v105q32 0 57 26t25 58h137v-717h-157v528h-62zM552 92v103l156 522h211v-516h78v-109h-78v-92h-154v92h-213zM694 201h71v282z" />
<glyph unicode="&#xbd;" horiz-adv-x="1044" d="M37 0l716 1434h170l-716 -1434h-170zM67 1245v105q82 0 82 84h137v-717h-157v528h-62zM647 0v96l178 324q29 53 29 145q0 45 -33 45q-39 0 -39 -74q0 -37 8 -73h-143v123q0 135 178 135q110 0 146 -53t36 -162q0 -76 -192 -414h192v-92h-360z" />
<glyph unicode="&#xbe;" horiz-adv-x="987" d="M27 850v168h146v-166q0 -28 29 -28q27 0 27 34v156q0 49 -67 49v84q69 0 69 59v71q0 57 -30 57q-29 0 -33 -35l2 -115h-139v133q0 127 176 127t176 -127v-84q0 -104 -82 -133q84 -25 84 -133v-107q0 -149 -178 -149q-180 0 -180 139zM49 0l717 1434h170l-717 -1434h-170z M516 92v103l156 522h211v-516h77v-109h-77v-92h-154v92h-213zM659 201h70v282z" />
<glyph unicode="&#xbf;" horiz-adv-x="733" d="M34 262v191q0 87 25.5 143.5t127.5 175.5q59 69 84 132t25 261h285v-16q0 -166 -18.5 -243t-131.5 -218q-100 -124 -100 -203v-264q0 -43 47 -43t47 43v373h274v-356q0 -254 -323 -254q-342 0 -342 278zM296 1225v209h285v-209h-285z" />
<glyph unicode="&#xc0;" horiz-adv-x="901" d="M15 0l236 1434h399l236 -1434h-312l-53 385h-141l-53 -385h-312zM270 1684h218l59 -185h-156zM407 584h88l-45 428z" />
<glyph unicode="&#xc1;" horiz-adv-x="901" d="M15 0l236 1434h399l236 -1434h-312l-53 385h-141l-53 -385h-312zM371 1499l61 185h215l-119 -185h-157zM407 584h88l-45 428z" />
<glyph unicode="&#xc2;" horiz-adv-x="901" d="M15 0l236 1434h399l236 -1434h-312l-53 385h-141l-53 -385h-312zM166 1499l158 238h266l158 -238h-203l-88 133l-88 -133h-203zM407 584h88l-45 428z" />
<glyph unicode="&#xc3;" horiz-adv-x="901" d="M15 0l236 1434h399l236 -1434h-312l-53 385h-141l-53 -385h-312zM113 1499q0 238 246 238q36 0 107 -27q72 -26 108 -26q37 0 37 53h184q0 -87 -59.5 -162.5t-169.5 -75.5q-40 0 -118 29q-77 29 -117 29q-33 0 -33 -58h-185zM407 584h88l-45 428z" />
<glyph unicode="&#xc4;" horiz-adv-x="901" d="M15 0l236 1434h399l236 -1434h-312l-53 385h-141l-53 -385h-312zM213 1596q0 40 29.5 69t69.5 29q98 0 98 -98q0 -44 -32 -70.5t-66 -26.5q-99 0 -99 97zM407 584h88l-45 428zM500 1596q0 40 29.5 69t69.5 29q98 0 98 -98q0 -39 -29.5 -68t-68.5 -29q-99 0 -99 97z" />
<glyph unicode="&#xc5;" horiz-adv-x="901" d="M15 0l236 1434h399l236 -1434h-312l-53 385h-141l-53 -385h-312zM260 1694q0 80 56.5 136t136.5 56q56 0 98 -25t67 -67t25 -98v-10q0 -80 -55 -132.5t-135 -52.5q-54 0 -97 26.5t-69.5 69.5t-26.5 97zM383 1694q0 -70 70 -70q72 0 72 70v8q0 64 -72 64q-70 0 -70 -72z M407 584h88l-45 428z" />
<glyph unicode="&#xc6;" horiz-adv-x="1159" d="M27 0l235 1434h864v-185h-297v-387h269v-174h-269v-504h301v-184h-616v385h-129l-63 -385h-295zM418 584h96v575z" />
<glyph unicode="&#xc7;" horiz-adv-x="758" d="M34 245v923q0 279 364 279q326 0 326 -254v-260h-287v284q0 35 -43 35q-45 0 -45 -35v-995q0 -35 45 -35q43 0 43 35v354h287v-364q0 -102 -100 -163.5t-226 -61.5q-364 0 -364 258zM283 -211l39 57q23 -16 39 -16q45 0 45 45q0 44 -42 44q-4 -2 -34 -11v100h116v-35 q84 -19 84 -106q0 -113 -163 -113q-51 0 -84 35z" />
<glyph unicode="&#xc8;" horiz-adv-x="668" d="M35 0v1434h612v-185h-297v-387h268v-174h-268v-504h301v-184h-616zM140 1684h218l59 -185h-156z" />
<glyph unicode="&#xc9;" horiz-adv-x="668" d="M35 0v1434h612v-185h-297v-387h268v-174h-268v-504h301v-184h-616zM191 1489l61 185h215l-119 -185h-157z" />
<glyph unicode="&#xca;" horiz-adv-x="668" d="M35 0v1434h612v-185h-297v-387h268v-174h-268v-504h301v-184h-616zM51 1499l158 238h266l158 -238h-203l-88 133l-88 -133h-203z" />
<glyph unicode="&#xcb;" horiz-adv-x="668" d="M35 0v1434h612v-185h-297v-387h268v-174h-268v-504h301v-184h-616zM106 1596q0 40 29.5 69t69.5 29q98 0 98 -98q0 -44 -32 -70.5t-66 -26.5q-99 0 -99 97zM393 1596q0 40 29.5 69t69.5 29q98 0 98 -98q0 -39 -29.5 -68t-68.5 -29q-99 0 -99 97z" />
<glyph unicode="&#xcc;" horiz-adv-x="373" d="M5 1684h218l59 -185h-156zM29 0v1434h315v-1434h-315z" />
<glyph unicode="&#xcd;" horiz-adv-x="373" d="M29 0v1434h315v-1434h-315zM86 1499l61 185h215l-119 -185h-157z" />
<glyph unicode="&#xce;" horiz-adv-x="373" d="M-94 1499l158 238h266l158 -238h-203l-88 133l-88 -133h-203zM29 0v1434h315v-1434h-315z" />
<glyph unicode="&#xcf;" horiz-adv-x="373" d="M-54 1596q0 40 29.5 69t69.5 29q98 0 98 -98q0 -44 -32 -70.5t-66 -26.5q-99 0 -99 97zM29 0v1434h315v-1434h-315zM233 1596q0 40 29.5 69t69.5 29q98 0 98 -98q0 -39 -29.5 -68t-68.5 -29q-99 0 -99 97z" />
<glyph unicode="&#xd0;" horiz-adv-x="866" d="M37 688v174h51v572h395q128 0 228 -69.5t100 -213.5v-868q0 -134 -93.5 -208.5t-232.5 -74.5h-397v688h-51zM403 184q97 0 97 76v914q0 75 -97 75v-387h68v-174h-68v-504z" />
<glyph unicode="&#xd1;" horiz-adv-x="870" d="M35 0v1434h358l180 -654v654h263v-1434h-324l-214 764v-764h-263zM103 1489q0 238 246 238q36 0 107 -27q72 -26 108 -26q37 0 37 53h184q0 -87 -59.5 -162.5t-169.5 -75.5q-40 0 -118 29q-77 29 -117 29q-33 0 -33 -58h-185z" />
<glyph unicode="&#xd2;" horiz-adv-x="782" d="M32 245v923q0 279 362 279q357 0 357 -277v-923q0 -125 -99.5 -192.5t-259.5 -67.5q-360 0 -360 258zM230 1684h218l59 -185h-156zM339 230q0 -43 53 -43q51 0 51 43v977q0 43 -51 43q-53 0 -53 -43v-977z" />
<glyph unicode="&#xd3;" horiz-adv-x="782" d="M32 245v923q0 279 362 279q357 0 357 -277v-923q0 -125 -99.5 -192.5t-259.5 -67.5q-360 0 -360 258zM313 1499l61 185h215l-119 -185h-157zM339 230q0 -43 53 -43q51 0 51 43v977q0 43 -51 43q-53 0 -53 -43v-977z" />
<glyph unicode="&#xd4;" horiz-adv-x="782" d="M32 245v923q0 279 362 279q357 0 357 -277v-923q0 -125 -99.5 -192.5t-259.5 -67.5q-360 0 -360 258zM106 1499l158 238h266l158 -238h-203l-88 133l-88 -133h-203zM339 230q0 -43 53 -43q51 0 51 43v977q0 43 -51 43q-53 0 -53 -43v-977z" />
<glyph unicode="&#xd5;" horiz-adv-x="782" d="M32 245v923q0 279 362 279q357 0 357 -277v-923q0 -125 -99.5 -192.5t-259.5 -67.5q-360 0 -360 258zM53 1499q0 238 246 238q36 0 107 -27q72 -26 108 -26q37 0 37 53h184q0 -87 -59.5 -162.5t-169.5 -75.5q-40 0 -118 29q-77 29 -117 29q-33 0 -33 -58h-185zM339 230 q0 -43 53 -43q51 0 51 43v977q0 43 -51 43q-53 0 -53 -43v-977z" />
<glyph unicode="&#xd6;" horiz-adv-x="782" d="M32 245v923q0 279 362 279q357 0 357 -277v-923q0 -125 -99.5 -192.5t-259.5 -67.5q-360 0 -360 258zM156 1596q0 40 29.5 69t69.5 29q98 0 98 -98q0 -44 -32 -70.5t-66 -26.5q-99 0 -99 97zM339 230q0 -43 53 -43q51 0 51 43v977q0 43 -51 43q-53 0 -53 -43v-977z M443 1596q0 40 29.5 69t69.5 29q98 0 98 -98q0 -39 -29.5 -68t-68.5 -29q-99 0 -99 97z" />
<glyph unicode="&#xd7;" horiz-adv-x="1196" d="M161 409l315 315l-314 314l122 122l314 -314l313 313l120 -121l-312 -313l314 -314l-122 -122l-314 314l-315 -315z" />
<glyph unicode="&#xd8;" horiz-adv-x="776" d="M-1 -98l76 204q-41 59 -41 136v923q0 279 362 279q101 0 170 -23l41 105h170l-71 -197q47 -66 47 -162v-923q0 -125 -99.5 -192.5t-259.5 -67.5q-104 0 -184 28l-41 -110h-170zM341 227q0 -43 53 -43q51 0 51 43v410l-104 -277v-133zM341 815l104 279v110q0 43 -51 43 q-53 0 -53 -43v-389z" />
<glyph unicode="&#xd9;" horiz-adv-x="801" d="M33 245v1189h315v-1204q0 -43 53 -43q52 0 52 43v1204h315v-1187q0 -124 -103 -192t-264 -68q-149 0 -258.5 61t-109.5 197zM215 1684h218l59 -185h-156z" />
<glyph unicode="&#xda;" horiz-adv-x="801" d="M33 245v1189h315v-1204q0 -43 53 -43q52 0 52 43v1204h315v-1187q0 -124 -103 -192t-264 -68q-149 0 -258.5 61t-109.5 197zM301 1499l61 185h215l-119 -185h-157z" />
<glyph unicode="&#xdb;" horiz-adv-x="801" d="M33 245v1189h315v-1204q0 -43 53 -43q52 0 52 43v1204h315v-1187q0 -124 -103 -192t-264 -68q-149 0 -258.5 61t-109.5 197zM116 1499l158 238h266l158 -238h-203l-88 133l-88 -133h-203z" />
<glyph unicode="&#xdc;" horiz-adv-x="801" d="M33 245v1189h315v-1204q0 -43 53 -43q52 0 52 43v1204h315v-1187q0 -124 -103 -192t-264 -68q-149 0 -258.5 61t-109.5 197zM166 1596q0 40 29.5 69t69.5 29q98 0 98 -98q0 -44 -32 -70.5t-66 -26.5q-99 0 -99 97zM453 1596q0 40 29.5 69t69.5 29q98 0 98 -98 q0 -39 -29.5 -68t-68.5 -29q-99 0 -99 97z" />
<glyph unicode="&#xdd;" horiz-adv-x="901" d="M8 1434h301l142 -508l161 508h283l-206 -578l-103 -289v-567h-315v556q-9 76 -81 297q-62 187 -182 581zM371 1499l61 185h215l-119 -185h-157z" />
<glyph unicode="&#xde;" horiz-adv-x="793" d="M37 0v1434h307v-254q275 0 343.5 -71t68.5 -183v-398q0 -254 -412 -254v-274h-307zM344 479q105 0 105 76v344q0 76 -105 76v-496z" />
<glyph unicode="&#xdf;" horiz-adv-x="881" d="M20 0v184q62 0 83.5 12.5t21.5 73.5v1164h379q132 0 231 -61.5t99 -192.5v-199q0 -151 -185 -213q195 -49 195 -207v-278q0 -283 -379 -283v158q72 0 72 75v390q0 75 -72 75v156q72 0 72 76v260q0 59 -56 59q-57 0 -57 -61v-907q0 -175 -54 -228t-229 -53h-121z" />
<glyph unicode="&#xe0;" horiz-adv-x="739" d="M36 166v233q0 78 56.5 136t227.5 145q99 50 99 80v172q0 57 -49 57q-56 0 -56 -139q0 -25 3 -74q4 -49 4 -74h-275v232q0 235 340 235q318 0 318 -245v-924h-252v45q-32 -61 -183 -61q-233 0 -233 182zM190 1434h218l59 -185h-156zM321 217q0 -53 51 -53q47 0 47 53v299 q-98 -24 -98 -88v-211z" />
<glyph unicode="&#xe1;" horiz-adv-x="739" d="M36 166v233q0 78 56.5 136t227.5 145q99 50 99 80v172q0 57 -49 57q-56 0 -56 -139q0 -25 3 -74q4 -49 4 -74h-275v232q0 235 340 235q318 0 318 -245v-924h-252v45q-32 -61 -183 -61q-233 0 -233 182zM281 1249l61 185h215l-119 -185h-157zM321 217q0 -53 51 -53 q47 0 47 53v299q-98 -24 -98 -88v-211z" />
<glyph unicode="&#xe2;" horiz-adv-x="739" d="M36 166v233q0 78 56.5 136t227.5 145q99 50 99 80v172q0 57 -49 57q-56 0 -56 -139q0 -25 3 -74q4 -49 4 -74h-275v232q0 235 340 235q318 0 318 -245v-924h-252v45q-32 -61 -183 -61q-233 0 -233 182zM96 1249l158 238h266l158 -238h-203l-88 133l-88 -133h-203z M321 217q0 -53 51 -53q47 0 47 53v299q-98 -24 -98 -88v-211z" />
<glyph unicode="&#xe3;" horiz-adv-x="739" d="M36 166v233q0 78 56.5 136t227.5 145q99 50 99 80v172q0 57 -49 57q-56 0 -56 -139q0 -25 3 -74q4 -49 4 -74h-275v232q0 235 340 235q318 0 318 -245v-924h-252v45q-32 -61 -183 -61q-233 0 -233 182zM43 1249q0 238 246 238q36 0 107 -27q72 -26 108 -26q37 0 37 53 h184q0 -87 -59.5 -162.5t-169.5 -75.5q-40 0 -118 29q-77 29 -117 29q-33 0 -33 -58h-185zM321 217q0 -53 51 -53q47 0 47 53v299q-98 -24 -98 -88v-211z" />
<glyph unicode="&#xe4;" horiz-adv-x="739" d="M36 166v233q0 78 56.5 136t227.5 145q99 50 99 80v172q0 57 -49 57q-56 0 -56 -139q0 -25 3 -74q4 -49 4 -74h-275v232q0 235 340 235q318 0 318 -245v-924h-252v45q-32 -61 -183 -61q-233 0 -233 182zM142 1346q0 40 29.5 69t69.5 29q98 0 98 -98q0 -44 -32 -70.5 t-66 -26.5q-99 0 -99 97zM321 217q0 -53 51 -53q47 0 47 53v299q-98 -24 -98 -88v-211zM429 1346q0 40 29.5 69t69.5 29q98 0 98 -98q0 -39 -29.5 -68t-68.5 -29q-99 0 -99 97z" />
<glyph unicode="&#xe5;" horiz-adv-x="739" d="M36 166v233q0 78 56.5 136t227.5 145q99 50 99 80v172q0 57 -49 57q-56 0 -56 -139q0 -25 3 -74q4 -49 4 -74h-275v232q0 235 340 235q318 0 318 -245v-924h-252v45q-32 -61 -183 -61q-233 0 -233 182zM195 1446q0 80 56.5 136t136.5 56q56 0 98 -25t67 -67t25 -98v-10 q0 -80 -55 -132.5t-135 -52.5q-54 0 -97 26.5t-69.5 69.5t-26.5 97zM318 1446q0 -70 70 -70q72 0 72 70v8q0 64 -72 64q-70 0 -70 -72zM321 217q0 -53 51 -53q47 0 47 53v299q-98 -24 -98 -88v-211z" />
<glyph unicode="&#xe6;" horiz-adv-x="1090" d="M35 166v233q0 78 56.5 136t227.5 145q99 50 99 80v164q0 57 -49 57q-57 0 -57 -140q0 -23 3 -70q4 -46 4 -69h-274v224q0 135 76 185t264 50q94 0 164 -37q77 37 166 37q225 0 280.5 -64t55.5 -171v-434h-383v-269q0 -59 49 -59q56 0 56 130q0 23 -4 68q-3 45 -3 68h285 v-205q0 -241 -377 -241q-92 0 -144 75q-80 -75 -241 -75q-254 0 -254 182zM319 217q0 -53 52 -53q47 0 47 53v299q-99 -25 -99 -88v-211zM668 666h98v258q0 57 -49 57t-49 -57v-258z" />
<glyph unicode="&#xe7;" d="M31 229v695q0 245 338 245q329 0 329 -235v-287h-284v285q0 57 -49 57q-50 0 -50 -57v-711q0 -59 50 -59q49 0 49 59v281h284v-283q0 -235 -329 -235q-338 0 -338 245zM263 -211l39 57q23 -16 39 -16q45 0 45 45q0 44 -42 44q-4 -2 -34 -11v100h116v-35q84 -19 84 -106 q0 -113 -163 -113q-51 0 -84 35z" />
<glyph unicode="&#xe8;" horiz-adv-x="731" d="M32 229v695q0 245 332 245q335 0 335 -235v-442h-383v-271q0 -59 50 -59q49 0 49 59v234h284v-236q0 -235 -335 -235q-332 0 -332 245zM187 1434h218l59 -185h-156zM316 666h99v266q0 57 -49 57q-50 0 -50 -57v-266z" />
<glyph unicode="&#xe9;" horiz-adv-x="731" d="M32 229v695q0 245 332 245q335 0 335 -235v-442h-383v-271q0 -59 50 -59q49 0 49 59v234h284v-236q0 -235 -335 -235q-332 0 -332 245zM281 1249l61 185h215l-119 -185h-157zM316 666h99v266q0 57 -49 57q-50 0 -50 -57v-266z" />
<glyph unicode="&#xea;" horiz-adv-x="731" d="M32 229v695q0 245 332 245q335 0 335 -235v-442h-383v-271q0 -59 50 -59q49 0 49 59v234h284v-236q0 -235 -335 -235q-332 0 -332 245zM76 1249l158 238h266l158 -238h-203l-88 133l-88 -133h-203zM316 666h99v266q0 57 -49 57q-50 0 -50 -57v-266z" />
<glyph unicode="&#xeb;" horiz-adv-x="731" d="M32 229v695q0 245 332 245q335 0 335 -235v-442h-383v-271q0 -59 50 -59q49 0 49 59v234h284v-236q0 -235 -335 -235q-332 0 -332 245zM126 1346q0 40 29.5 69t69.5 29q98 0 98 -98q0 -44 -32 -70.5t-66 -26.5q-99 0 -99 97zM316 666h99v266q0 57 -49 57q-50 0 -50 -57 v-266zM413 1346q0 40 29.5 69t69.5 29q98 0 98 -98q0 -39 -29.5 -68t-68.5 -29q-99 0 -99 97z" />
<glyph unicode="&#xec;" horiz-adv-x="340" d="M-21 1434h218l59 -185h-156zM27 0v1161h285v-1161h-285z" />
<glyph unicode="&#xed;" horiz-adv-x="340" d="M27 0v1161h285v-1161h-285zM91 1249l61 185h215l-119 -185h-157z" />
<glyph unicode="&#xee;" horiz-adv-x="340" d="M-124 1249l158 238h266l158 -238h-203l-88 133l-88 -133h-203zM27 0v1161h285v-1161h-285z" />
<glyph unicode="&#xef;" horiz-adv-x="340" d="M-64 1346q0 40 29.5 69t69.5 29q98 0 98 -98q0 -44 -32 -70.5t-66 -26.5q-99 0 -99 97zM27 0v1161h285v-1161h-285zM223 1346q0 40 29.5 69t69.5 29q98 0 98 -98q0 -39 -29.5 -68t-68.5 -29q-99 0 -99 97z" />
<glyph unicode="&#xf0;" horiz-adv-x="862" d="M35 244v295q0 79 46.5 129t257.5 165q107 57 107 115l-241 -102v227l241 103v26q0 47 -53 47q-51 0 -51 -88h-307q0 283 356 283q269 0 338 -146l137 60v-228l-112 -49v-839q0 -127 -102 -192.5t-259 -65.5q-358 0 -358 260zM342 231q0 -47 53 -47q51 0 51 47v433 q-104 -24 -104 -95v-338z" />
<glyph unicode="&#xf1;" d="M31 0v1161h285v-39q57 47 176 47q77 0 142 -42t65 -123v-1004h-285v932q0 53 -49 53t-49 -51v-934h-285zM33 1249q0 238 246 238q36 0 107 -27q72 -26 108 -26q37 0 37 53h184q0 -87 -59.5 -162.5t-169.5 -75.5q-40 0 -118 29q-77 29 -117 29q-33 0 -33 -58h-185z" />
<glyph unicode="&#xf2;" horiz-adv-x="721" d="M26 229v695q0 245 339 245q131 0 230.5 -57t99.5 -178v-715q0 -235 -330 -235q-339 0 -339 245zM170 1434h218l59 -185h-156zM311 221q0 -59 50 -59q49 0 49 59v711q0 57 -49 57q-50 0 -50 -57v-711z" />
<glyph unicode="&#xf3;" horiz-adv-x="721" d="M26 229v695q0 245 339 245q131 0 230.5 -57t99.5 -178v-715q0 -235 -330 -235q-339 0 -339 245zM261 1249l61 185h215l-119 -185h-157zM311 221q0 -59 50 -59q49 0 49 59v711q0 57 -49 57q-50 0 -50 -57v-711z" />
<glyph unicode="&#xf4;" horiz-adv-x="721" d="M26 229v695q0 245 339 245q131 0 230.5 -57t99.5 -178v-715q0 -235 -330 -235q-339 0 -339 245zM76 1249l158 238h266l158 -238h-203l-88 133l-88 -133h-203zM311 221q0 -59 50 -59q49 0 49 59v711q0 57 -49 57q-50 0 -50 -57v-711z" />
<glyph unicode="&#xf5;" horiz-adv-x="721" d="M26 229v695q0 245 339 245q131 0 230.5 -57t99.5 -178v-715q0 -235 -330 -235q-339 0 -339 245zM33 1249q0 238 246 238q36 0 107 -27q72 -26 108 -26q37 0 37 53h184q0 -87 -59.5 -162.5t-169.5 -75.5q-40 0 -118 29q-77 29 -117 29q-33 0 -33 -58h-185zM311 221 q0 -59 50 -59q49 0 49 59v711q0 57 -49 57q-50 0 -50 -57v-711z" />
<glyph unicode="&#xf6;" horiz-adv-x="721" d="M26 229v695q0 245 339 245q131 0 230.5 -57t99.5 -178v-715q0 -235 -330 -235q-339 0 -339 245zM116 1346q0 40 29.5 69t69.5 29q98 0 98 -98q0 -44 -32 -70.5t-66 -26.5q-99 0 -99 97zM311 221q0 -59 50 -59q49 0 49 59v711q0 57 -49 57q-50 0 -50 -57v-711zM403 1346 q0 40 29.5 69t69.5 29q98 0 98 -98q0 -39 -29.5 -68t-68.5 -29q-99 0 -99 97z" />
<glyph unicode="&#xf7;" horiz-adv-x="772" d="M27 279v161h719v-161h-719zM295 598q0 90 90 90t90 -90q0 -88 -90 -88t-90 88zM297 115q0 90 90 90t90 -90q0 -84 -90 -84t-90 84z" />
<glyph unicode="&#xf8;" horiz-adv-x="731" d="M14 -41l58 135q-37 58 -37 135v695q0 245 338 245q88 0 151 -22l29 63h170l-64 -149q43 -55 43 -127v-715q0 -235 -329 -235q-93 0 -168 22l-21 -47h-170zM319 221q0 -57 39 -57q18 0 39 17.5t21 39.5v281l-99 -230v-51zM319 668l99 231v43q0 57 -49 57q-50 0 -50 -57 v-274z" />
<glyph unicode="&#xf9;" d="M31 145v1016h284v-944q0 -53 50 -53q49 0 49 51v946h284v-1161h-284v39q-55 -55 -176 -55q-84 0 -145.5 44.5t-61.5 116.5zM209 1434h218l59 -185h-156z" />
<glyph unicode="&#xfa;" d="M31 145v1016h284v-944q0 -53 50 -53q49 0 49 51v946h284v-1161h-284v39q-55 -55 -176 -55q-84 0 -145.5 44.5t-61.5 116.5zM261 1249l61 185h215l-119 -185h-157z" />
<glyph unicode="&#xfb;" d="M31 145v1016h284v-944q0 -53 50 -53q49 0 49 51v946h284v-1161h-284v39q-55 -55 -176 -55q-84 0 -145.5 44.5t-61.5 116.5zM86 1249l158 238h266l158 -238h-203l-88 133l-88 -133h-203z" />
<glyph unicode="&#xfc;" d="M31 145v1016h284v-944q0 -53 50 -53q49 0 49 51v946h284v-1161h-284v39q-55 -55 -176 -55q-84 0 -145.5 44.5t-61.5 116.5zM126 1345q0 40 29.5 69t69.5 29q98 0 98 -98q0 -44 -32 -70.5t-66 -26.5q-99 0 -99 97zM413 1345q0 40 29.5 69t69.5 29q98 0 98 -98 q0 -39 -29.5 -68t-68.5 -29q-99 0 -99 97z" />
<glyph unicode="&#xfd;" horiz-adv-x="791" d="M7 1161h285l119 -614l94 614h278l-221 -1155q-34 -177 -91.5 -214.5t-159.5 -37.5h-199v156q112 0 139 11t27 65t-123 563zM311 1249l61 185h215l-119 -185h-157z" />
<glyph unicode="&#xfe;" horiz-adv-x="754" d="M37 -246v1680h285v-308q51 43 176 43q76 0 141.5 -41.5t65.5 -119.5v-863q0 -73 -62 -117t-145 -44q-118 0 -176 43v-273h-285zM322 215q0 -51 49 -51t49 53v719q0 53 -49 53t-49 -51v-723z" />
<glyph unicode="&#xff;" horiz-adv-x="791" d="M7 1161h285l119 -614l94 614h278l-221 -1155q-34 -177 -91.5 -214.5t-159.5 -37.5h-199v156q112 0 139 11t27 65t-123 563zM176 1346q0 40 29.5 69t69.5 29q98 0 98 -98q0 -44 -32 -70.5t-66 -26.5q-99 0 -99 97zM463 1346q0 40 29.5 69t69.5 29q98 0 98 -98 q0 -39 -29.5 -68t-68.5 -29q-99 0 -99 97z" />
<glyph unicode="&#x152;" horiz-adv-x="1081" d="M35 242v923q0 134 99 206.5t263 72.5q20 0 60 -5q41 -5 61 -5h541v-185h-297v-387h268v-174h-268v-504h301v-184h-524q-24 0 -72 -8t-72 -8q-360 0 -360 258zM342 227q0 -43 53 -43q51 0 51 43v977q0 43 -51 43q-53 0 -53 -43v-977z" />
<glyph unicode="&#x153;" horiz-adv-x="1128" d="M29 229v686q0 246 338 246q115 0 198 -37q85 37 199 37q336 0 336 -235v-434h-383v-271q0 -59 49 -59t49 59v234h285v-236q0 -235 -336 -235q-125 0 -201 36q-84 -36 -196 -36q-338 0 -338 245zM313 221q0 -59 50 -59q49 0 49 56v710q0 53 -49 53q-50 0 -50 -57v-703z M717 666h98v258q0 57 -49 57t-49 -57v-258z" />
<glyph unicode="&#x178;" horiz-adv-x="901" d="M8 1434h301l142 -508l161 508h283l-206 -578l-103 -289v-567h-315v556q-9 76 -81 297q-62 187 -182 581zM226 1596q0 40 29.5 69t69.5 29q98 0 98 -98q0 -44 -32 -70.5t-66 -26.5q-99 0 -99 97zM513 1596q0 40 29.5 69t69.5 29q98 0 98 -98q0 -39 -29.5 -68t-68.5 -29 q-99 0 -99 97z" />
<glyph unicode="&#x2c6;" horiz-adv-x="635" d="M26 1249l158 238h266l158 -238h-203l-88 133l-88 -133h-203z" />
<glyph unicode="&#x2dc;" horiz-adv-x="727" d="M23 1249q0 238 246 238q36 0 107 -27q72 -26 108 -26q37 0 37 53h184q0 -87 -59.5 -162.5t-169.5 -75.5q-40 0 -118 29q-77 29 -117 29q-33 0 -33 -58h-185z" />
<glyph unicode="&#x2000;" horiz-adv-x="943" />
<glyph unicode="&#x2001;" horiz-adv-x="1886" />
<glyph unicode="&#x2002;" horiz-adv-x="943" />
<glyph unicode="&#x2003;" horiz-adv-x="1886" />
<glyph unicode="&#x2004;" horiz-adv-x="628" />
<glyph unicode="&#x2005;" horiz-adv-x="471" />
<glyph unicode="&#x2006;" horiz-adv-x="314" />
<glyph unicode="&#x2007;" horiz-adv-x="314" />
<glyph unicode="&#x2008;" horiz-adv-x="235" />
<glyph unicode="&#x2009;" horiz-adv-x="377" />
<glyph unicode="&#x200a;" horiz-adv-x="104" />
<glyph unicode="&#x2010;" horiz-adv-x="461" d="M37 510v161h407v-161h-407z" />
<glyph unicode="&#x2011;" horiz-adv-x="461" d="M37 510v161h407v-161h-407z" />
<glyph unicode="&#x2012;" horiz-adv-x="461" d="M37 510v161h407v-161h-407z" />
<glyph unicode="&#x2013;" horiz-adv-x="801" d="M0 279v161h801v-161h-801z" />
<glyph unicode="&#x2014;" horiz-adv-x="1096" d="M0 279v161h1096v-161h-1096z" />
<glyph unicode="&#x2018;" horiz-adv-x="303" d="M21 1053v143q0 130 164 238l58 -48q-68 -68 -74 -124h113v-209h-261z" />
<glyph unicode="&#x2019;" horiz-adv-x="289" d="M14 1225v209h260v-144q0 -130 -163 -237l-58 47q69 68 74 125h-113z" />
<glyph unicode="&#x201a;" horiz-adv-x="322" d="M31 0v209h260v-143q0 -130 -164 -238l-57 47q67 67 73 125h-112z" />
<glyph unicode="&#x201c;" horiz-adv-x="586" d="M16 1053v143q0 130 164 238l58 -48q-68 -68 -74 -124h113v-209h-261zM309 1053v143q0 130 164 238l58 -48q-68 -68 -74 -124h112v-209h-260z" />
<glyph unicode="&#x201d;" horiz-adv-x="586" d="M36 1226v209h260v-143q0 -135 -164 -238l-57 47q68 68 74 125h-113zM329 1226v209h260v-143q0 -135 -164 -238l-57 47q67 67 73 125h-112z" />
<glyph unicode="&#x201e;" horiz-adv-x="625" d="M36 0v209h260v-143q0 -135 -164 -238l-57 47q68 68 74 125h-113zM329 0v209h260v-143q0 -135 -164 -238l-57 47q67 67 73 125h-112z" />
<glyph unicode="&#x2022;" horiz-adv-x="479" d="M25 524q0 63 28 110.5t76 76t111 28.5q61 0 109 -29t77 -77t29 -109q0 -88 -63.5 -150.5t-151.5 -62.5q-79 0 -147 55.5t-68 157.5z" />
<glyph unicode="&#x2026;" horiz-adv-x="965" d="M25 0v209h260v-209h-260zM352 0v209h261v-209h-261zM680 0v209h260v-209h-260z" />
<glyph unicode="&#x202f;" horiz-adv-x="377" />
<glyph unicode="&#x2039;" horiz-adv-x="637" d="M32 354v162l573 356v-223l-352 -215l352 -213v-221z" />
<glyph unicode="&#x203a;" horiz-adv-x="637" d="M32 0v221l352 213l-352 215v223l573 -356v-162z" />
<glyph unicode="&#x205f;" horiz-adv-x="471" />
<glyph unicode="&#x2122;" horiz-adv-x="971" d="M35 1341v91h334v-91h-88v-626h-158v626h-88zM397 715v717h203l72 -369l63 369h211v-717h-141v405l-82 -405h-109l-94 405v-405h-123z" />
<glyph unicode="&#x25fc;" horiz-adv-x="1160" d="M0 0v1160h1160v-1160h-1160z" />
<glyph unicode="&#xfb01;" horiz-adv-x="858" d="M23 989v172h96q0 176 47.5 224.5t220.5 48.5h180v-156q-110 0 -137 -15.5t-27 -101.5h412v-1161h-285v989h-127v-989h-284v989h-96z" />
<glyph unicode="&#xfb02;" horiz-adv-x="883" d="M23 989v172h96q0 176 47.5 224.5t220.5 48.5h465v-1434h-285v989h-164v-989h-284v989h-96zM403 1161h164v117q-164 0 -164 -57v-60z" />
</font>
</defs>
</svg>
